{"asset":{"version":"2.0","generator":"Blockbench 4.8.3 glTF exporter"},"scenes":[{"nodes":[2],"name":"blockbench_export"}],"scene":0,"nodes":[{"name":"cone","mesh":0},{"rotation":[0,0,-1,6.123233995736766e-17],"name":"cone","mesh":1},{"children":[0,1]}],"bufferViews":[{"buffer":0,"byteOffset":0,"byteLength":864,"target":34962,"byteStride":12},{"buffer":0,"byteOffset":864,"byteLength":864,"target":34962,"byteStride":12},{"buffer":0,"byteOffset":1728,"byteLength":576,"target":34962,"byteStride":8},{"buffer":0,"byteOffset":2304,"byteLength":144,"target":34963},{"buffer":0,"byteOffset":2448,"byteLength":864,"target":34962,"byteStride":12},{"buffer":0,"byteOffset":3312,"byteLength":864,"target":34962,"byteStride":12},{"buffer":0,"byteOffset":4176,"byteLength":576,"target":34962,"byteStride":8},{"buffer":0,"byteOffset":4752,"byteLength":144,"target":34963}],"buffers":[{"byteLength":4896,"uri":"data:application/octet-stream;base64,"}],"accessors":[{"bufferView":0,"componentType":5126,"count":72,"max":[0.34375,0.8125,0.34375],"min":[-0.34375,0,-0.34375],"type":"VEC3"},{"bufferView":1,"componentType":5126,"count":72,"max":[0.9209672808647156,0.3896400034427643,0.9209672808647156],"min":[-0.9209672808647156,-1,-0.9209672808647156],"type":"VEC3"},{"bufferView":2,"componentType":5126,"count":72,"max":[0.984375,0.171875],"min":[0.015625,0.078125],"type":"VEC2"},{"bufferView":3,"componentType":5123,"count":72,"max":[71],"min":[0],"type":"SCALAR"},{"bufferView":4,"componentType":5126,"count":72,"max":[0.34375,0.8125,0.34375],"min":[-0.34375,0,-0.34375],"type":"VEC3"},{"bufferView":5,"componentType":5126,"count":72,"max":[0.9209672808647156,0.3896400034427643,0.9209672808647156],"min":[-0.9209672808647156,-1,-0.9209672808647156],"type":"VEC3"},{"bufferView":6,"componentType":5126,"count":72,"max":[0.984375,0.109375],"min":[0.015625,0.015625],"type":"VEC2"},{"bufferView":7,"componentType":5123,"count":72,"max":[71],"min":[0],"type":"SCALAR"}],"materials":[{"pbrMetallicRoughness":{"metallicFactor":0,"roughnessFactor":1,"baseColorTexture":{"index":0}},"alphaMode":"MASK","alphaCutoff":0.05,"doubleSided":true}],"textures":[{"sampler":0,"source":0,"name":"texture"}],"samplers":[{"magFilter":9728,"minFilter":9728,"wrapS":33071,"wrapT":33071}],"images":[{"mimeType":"image/png","uri":"data:image/png;base64,"}],"meshes":[{"primitives":[{"mode":4,"attributes":{"POSITION":0,"NORMAL":1,"TEXCOORD_0":2},"indices":3,"material":0}]},{"primitives":[{"mode":4,"attributes":{"POSITION":4,"NORMAL":5,"TEXCOORD_0":6},"indices":7,"material":0}]}]}