{"asset":{"version":"2.0","generator":"Blockbench 4.8.3 glTF exporter"},"scenes":[{"nodes":[1],"name":"blockbench_export"}],"scene":0,"nodes":[{"name":"torus","mesh":0},{"children":[0]}],"bufferViews":[{"buffer":0,"byteOffset":0,"byteLength":3168,"target":34962,"byteStride":12},{"buffer":0,"byteOffset":3168,"byteLength":3168,"target":34962,"byteStride":12},{"buffer":0,"byteOffset":6336,"byteLength":2112,"target":34962,"byteStride":8},{"buffer":0,"byteOffset":8448,"byteLength":792,"target":34963}],"buffers":[{"byteLength":9240,"uri":"data:application/octet-stream;base64,"}],"accessors":[{"bufferView":0,"componentType":5126,"count":264,"max":[0.6848688721656799,0.07216878235340118,0.5931138396263123],"min":[-0.6848688721656799,-0.06924544274806976,-0.5931138396263123],"type":"VEC3"},{"bufferView":1,"componentType":5126,"count":264,"max":[0.8593890070915222,0.9470463991165161,0.9923369288444519],"min":[-0.8593890070915222,-1,-0.9923369288444519],"type":"VEC3"},{"bufferView":2,"componentType":5126,"count":264,"max":[0.984375,0.296875],"min":[0.015625,0.015625],"type":"VEC2"},{"bufferView":3,"componentType":5123,"count":396,"max":[263],"min":[0],"type":"SCALAR"}],"materials":[{"pbrMetallicRoughness":{"metallicFactor":0,"roughnessFactor":1,"baseColorTexture":{"index":0}},"alphaMode":"MASK","alphaCutoff":0.05,"doubleSided":true}],"textures":[{"sampler":0,"source":0,"name":"texture"}],"samplers":[{"magFilter":9728,"minFilter":9728,"wrapS":33071,"wrapT":33071}],"images":[{"mimeType":"image/png","uri":"data:image/png;base64,"}],"meshes":[{"primitives":[{"mode":4,"attributes":{"POSITION":0,"NORMAL":1,"TEXCOORD_0":2},"indices":3,"material":0}]}]}